<?xml version="1.0" encoding="UTF-8" standalone="no"?>
<!-- Created with Inkscape (http://www.inkscape.org/) -->

<svg
   xmlns:dc="http://purl.org/dc/elements/1.1/"
   xmlns:cc="http://creativecommons.org/ns#"
   xmlns:rdf="http://www.w3.org/1999/02/22-rdf-syntax-ns#"
   xmlns:svg="http://www.w3.org/2000/svg"
   xmlns="http://www.w3.org/2000/svg"
   xmlns:sodipodi="http://sodipodi.sourceforge.net/DTD/sodipodi-0.dtd"
   xmlns:inkscape="http://www.inkscape.org/namespaces/inkscape"
   width="512"
   height="512"
   viewBox="0 0 135.46667 135.46666"
   version="1.1"
   id="svg8"
   inkscape:version="0.92.4 (5da689c313, 2019-01-14)"
   sodipodi:docname="logo.svg"
   inkscape:export-filename="C:\Workspace\k\assets\logo.png"
   inkscape:export-xdpi="95"
   inkscape:export-ydpi="95">
  <defs
     id="defs2">
    <clipPath
       clipPathUnits="userSpaceOnUse"
       id="clipPath968">
      <rect
         style="fill:#000000;fill-opacity:1;stroke:#ffffff;stroke-width:0;stroke-miterlimit:4;stroke-dasharray:none;stroke-opacity:1"
         id="rect970"
         width="357.85715"
         height="79.821434"
         x="-129.43898"
         y="-167.05258"
         transform="scale(1,-1)" />
    </clipPath>
  </defs>
  <sodipodi:namedview
     id="base"
     pagecolor="#ffffff"
     bordercolor="#666666"
     borderopacity="1.0"
     inkscape:pageopacity="0.0"
     inkscape:pageshadow="2"
     inkscape:zoom="0.7"
     inkscape:cx="134.21622"
     inkscape:cy="317.7925"
     inkscape:document-units="mm"
     inkscape:current-layer="layer1"
     showgrid="false"
     inkscape:window-width="1920"
     inkscape:window-height="1017"
     inkscape:window-x="1912"
     inkscape:window-y="-8"
     inkscape:window-maximized="1"
     fit-margin-top="0"
     fit-margin-left="0"
     fit-margin-right="0"
     fit-margin-bottom="0"
     units="px" />
  <metadata
     id="metadata5">
    <rdf:RDF>
      <cc:Work
         rdf:about="">
        <dc:format>image/svg+xml</dc:format>
        <dc:type
           rdf:resource="http://purl.org/dc/dcmitype/StillImage" />
        <dc:title></dc:title>
      </cc:Work>
    </rdf:RDF>
  </metadata>
  <g
     inkscape:label="Calque 1"
     inkscape:groupmode="layer"
     id="layer1"
     transform="translate(-40.549288,-123.98174)">
    <path
       style="fill:#000000;stroke-width:0.59964758"
       d="m 147.57,258.51305 c -5.82108,-0.87588 -16.56866,-3.73239 -18.8122,-4.99984 -0.58289,-0.32927 -2.25215,-1.1393 -3.70946,-1.79987 -2.95982,-1.34173 -9.08944,-5.35344 -10.37519,-6.79043 -0.46012,-0.51427 -0.99331,-0.93503 -1.18489,-0.93503 -0.73641,0 -7.6085,-7.52046 -9.41716,-10.30566 -6.273326,-9.66046 -12.349231,-20.95061 -16.181322,-30.06793 -6.628725,-15.77099 -10.998624,-24.74642 -14.373091,-29.52117 -1.580833,-2.2368 -3.232387,-4.06694 -3.670129,-4.06694 -1.484414,0 -6.488826,5.01002 -6.777934,6.78548 -0.152003,0.933 -0.338058,10.11067 -0.413631,20.39481 l -0.137404,18.6984 1.589764,3.92464 c 1.360719,3.35912 2.383857,4.6603 4.944705,6.28837 0.09653,0.0613 -0.09294,0.7535 -0.420839,1.53817 -0.585334,1.40046 -0.845945,1.4233 -14.218337,1.24555 l -13.622069,-0.18107 -0.170894,-1.90694 c -0.1386,-1.54803 0.288599,-2.42463 2.269945,-4.65787 3.516384,-3.96338 4.003741,-5.62275 4.825209,-16.42913 1.012043,-13.31299 1.020057,-54.9874 0.01196,-62.93808 -0.884021,-6.97313 -1.256592,-7.98301 -4.662118,-12.63696 -4.366473,-5.96717 -4.497299,-5.89811 11.571019,-6.10806 12.327362,-0.16126 13.910418,-0.0586 14.558541,0.94124 0.633822,0.9779 0.558035,1.26227 -0.590318,2.21445 -3.717099,3.08214 -5.738797,8.85926 -5.952523,17.00948 -0.239631,9.13772 0.13459,24.77471 0.616057,25.74852 1.480608,2.9943 16.544777,-19.80239 21.25283,-32.16202 1.181727,-3.10227 1.826535,-5.80897 1.858934,-7.80329 l 0.0496,-3.05349 2.352021,-0.4586 c 1.293627,-0.25224 4.736687,-0.49944 7.651236,-0.54935 4.985568,-0.0856 8.509928,-0.6258 11.260828,-1.72663 0.90333,-0.3617 1.19232,-0.20765 1.19232,0.63584 0,1.60469 -16.230326,22.60985 -22.786619,29.49023 -3.060291,3.2116 -5.854778,6.1936 -6.209968,6.62674 -0.503078,0.6135 -0.25715,1.44024 1.113025,3.74109 2.037356,3.42127 6.447347,12.0522 7.92316,15.50668 0.558026,1.30623 1.424595,3.1383 1.925632,4.0713 0.501072,0.93304 2.055297,4.44449 3.453789,7.80329 1.398528,3.3588 2.936324,6.8703 3.41738,7.80329 0.481021,0.93304 1.341505,2.86201 1.912194,4.28671 0.570727,1.42469 1.395327,3.10412 1.832517,3.73203 0.43719,0.62791 1.44162,2.41531 2.23206,3.97203 1.39561,2.74849 9.93347,14.18589 12.60575,16.88682 1.92496,1.94554 8.69577,7.65032 11.28566,9.50884 14.38683,10.32386 27.33908,14.84304 41.40417,14.44638 4.05984,-0.11486 6.91771,0.0725 7.01382,0.45927 0.26102,1.04908 -5.98606,4.54787 -9.81544,5.4974 -4.38143,1.08646 -10.70639,1.03254 -18.62284,-0.15855 z"
       id="path834"
       inkscape:connector-curvature="0" />
  </g>
</svg>
