<?xml version="1.0" encoding="UTF-8" standalone="no"?>
<!-- Created with Inkscape (http://www.inkscape.org/) -->

<svg
   xmlns:dc="http://purl.org/dc/elements/1.1/"
   xmlns:cc="http://creativecommons.org/ns#"
   xmlns:rdf="http://www.w3.org/1999/02/22-rdf-syntax-ns#"
   xmlns:svg="http://www.w3.org/2000/svg"
   xmlns="http://www.w3.org/2000/svg"
   xmlns:sodipodi="http://sodipodi.sourceforge.net/DTD/sodipodi-0.dtd"
   xmlns:inkscape="http://www.inkscape.org/namespaces/inkscape"
   width="117.92647mm"
   height="103.17567mm"
   viewBox="0 0 117.92647 103.17567"
   version="1.1"
   id="svg1555"
   inkscape:version="0.92.4 (5da689c313, 2019-01-14)"
   sodipodi:docname="logo.svg">
  <defs
     id="defs1549" />
  <sodipodi:namedview
     id="base"
     pagecolor="#ffffff"
     bordercolor="#666666"
     borderopacity="1.0"
     inkscape:pageopacity="0.0"
     inkscape:pageshadow="2"
     inkscape:zoom="0.35"
     inkscape:cx="-307.27238"
     inkscape:cy="94.954721"
     inkscape:document-units="mm"
     inkscape:current-layer="layer1"
     showgrid="false"
     fit-margin-top="0"
     fit-margin-left="0"
     fit-margin-right="0"
     fit-margin-bottom="0"
     inkscape:window-width="1920"
     inkscape:window-height="1017"
     inkscape:window-x="1912"
     inkscape:window-y="-8"
     inkscape:window-maximized="1" />
  <metadata
     id="metadata1552">
    <rdf:RDF>
      <cc:Work
         rdf:about="">
        <dc:format>image/svg+xml</dc:format>
        <dc:type
           rdf:resource="http://purl.org/dc/dcmitype/StillImage" />
        <dc:title></dc:title>
      </cc:Work>
    </rdf:RDF>
  </metadata>
  <g
     inkscape:label="Calque 1"
     inkscape:groupmode="layer"
     id="layer1"
     transform="translate(-49.171174,-70.781107)">
    <path
       style="fill:#000000;stroke-width:0.26458332"
       d="m 50.836034,172.33896 -1.66486,-1.6178 3.51694,0.18667 c 1.93432,0.10267 3.75507,0.2083 4.04611,0.23473 0.63122,0.0573 0.50408,5.43932 1.05742,-44.75942 l 0.40642,-36.869994 -1.60776,-2.920618 c -0.88428,-1.606342 -1.5113,-3.007759 -1.39338,-3.11426 0.33864,-0.305866 24.08588,-12.697 24.33373,-12.697161 0.12228,-7.9e-5 0.19135,1.577499 0.15349,3.505729 -0.0379,1.928231 -0.43433,25.05579 -0.88106,51.394584 -0.44672,26.33878 -0.83247,47.90232 -0.85721,47.91897 -0.0247,0.0167 -5.75998,0.10365 -12.74498,0.19333 l -12.7,0.16305 z m 53.548296,-25.86588 c -8.349809,-10.02939 -15.254996,-18.35423 -15.344866,-18.49964 -0.0899,-0.1454 0.0759,-2.35714 0.36829,-4.91498 0.75917,-6.64039 0.8905,-5.98371 -1.51884,-7.59435 -1.12779,-0.75392 -2.09281,-1.40507 -2.14451,-1.44701 -0.0517,-0.0419 3.7172,-4.76998 8.375307,-10.50676 4.65811,-5.736784 8.620599,-10.672804 8.805539,-10.968924 0.29812,-0.47737 0.19626,-0.72678 -0.89846,-2.19993 -0.67908,-0.91383 -1.19774,-1.698459 -1.15259,-1.743612 0.0969,-0.09691 29.12714,-5.625552 29.18935,-5.558949 0.0234,0.025 -6.02965,6.204952 -13.45112,13.733231 l -13.49359,13.687784 11.30723,15.68097 c 6.21897,8.62454 11.40044,15.78513 11.51436,15.91243 0.1173,0.13108 1.547,0.0376 3.29662,-0.21564 1.69922,-0.24591 3.13418,-0.40242 3.1888,-0.3478 0.0546,0.0546 -0.55313,0.88535 -1.35056,1.84606 -3.76764,4.53911 -8.04685,12.32033 -10.06893,18.30914 -0.56885,1.68478 -1.12569,3.06324 -1.23741,3.06324 -0.11173,0 -7.0348,-8.20587 -15.38462,-18.23526 z m 11.48735,-43.46903 -1.18756,-0.2643 1.05526,-0.52256 c 0.65961,-0.32663 4.13049,-3.648504 9.25734,-8.859914 l 8.20209,-8.337356 5.55625,-1.14081 c 13.33638,-2.738227 21.96795,-5.133592 25.76604,-7.150387 0.9437,-0.501105 1.74435,-0.882561 1.77923,-0.847681 0.10665,0.106646 0.86079,3.491712 0.79301,3.559498 -0.0725,0.07252 -4.83453,2.388994 -30.67652,14.922566 -10.16281,4.92905 -18.67577,8.949154 -18.91771,8.933564 -0.24194,-0.0156 -0.97428,-0.14726 -1.62743,-0.29262 z"
       id="path2111"
       inkscape:connector-curvature="0" />
  </g>
</svg>
