<?xml version="1.0" encoding="UTF-8" standalone="no"?>
<!-- Created with Inkscape (http://www.inkscape.org/) -->

<svg
   xmlns:dc="http://purl.org/dc/elements/1.1/"
   xmlns:cc="http://creativecommons.org/ns#"
   xmlns:rdf="http://www.w3.org/1999/02/22-rdf-syntax-ns#"
   xmlns:svg="http://www.w3.org/2000/svg"
   xmlns="http://www.w3.org/2000/svg"
   xmlns:sodipodi="http://sodipodi.sourceforge.net/DTD/sodipodi-0.dtd"
   xmlns:inkscape="http://www.inkscape.org/namespaces/inkscape"
   width="1024"
   height="500"
   viewBox="0 0 270.93333 132.29167"
   version="1.1"
   id="svg8"
   inkscape:version="0.92.4 (5da689c313, 2019-01-14)"
   sodipodi:docname="presentation.svg"
   inkscape:export-filename="C:\Workspace\k\assets\presentation.png"
   inkscape:export-xdpi="96"
   inkscape:export-ydpi="96">
  <defs
     id="defs2">
    <clipPath
       id="clipPath968"
       clipPathUnits="userSpaceOnUse">
      <rect
         transform="scale(1,-1)"
         y="-167.05258"
         x="-129.43898"
         height="79.821434"
         width="357.85715"
         id="rect970"
         style="fill:#000000;fill-opacity:1;stroke:#ffffff;stroke-width:0;stroke-miterlimit:4;stroke-dasharray:none;stroke-opacity:1" />
    </clipPath>
  </defs>
  <sodipodi:namedview
     id="base"
     pagecolor="#ffffff"
     bordercolor="#666666"
     borderopacity="1.0"
     inkscape:pageopacity="0.0"
     inkscape:pageshadow="2"
     inkscape:zoom="0.98994949"
     inkscape:cx="361.58571"
     inkscape:cy="316.40244"
     inkscape:document-units="mm"
     inkscape:current-layer="layer1"
     showgrid="false"
     units="px"
     inkscape:window-width="1920"
     inkscape:window-height="1057"
     inkscape:window-x="-8"
     inkscape:window-y="-8"
     inkscape:window-maximized="1" />
  <metadata
     id="metadata5">
    <rdf:RDF>
      <cc:Work
         rdf:about="">
        <dc:format>image/svg+xml</dc:format>
        <dc:type
           rdf:resource="http://purl.org/dc/dcmitype/StillImage" />
        <dc:title></dc:title>
      </cc:Work>
    </rdf:RDF>
  </metadata>
  <g
     inkscape:label="Calque 1"
     inkscape:groupmode="layer"
     id="layer1"
     transform="translate(0,-164.70832)">
    <g
       transform="matrix(2.5532067,0,0,2.5532067,357.85833,-237.11315)"
       id="layer1-5"
       inkscape:label="Calque 1">
      <g
         mask="none"
         clip-path="none"
         id="g10"
         inkscape:label="ink_ext_XXXXXX"
         transform="matrix(0.35277777,0,0,-0.35277777,-191.20571,236.39174)">
        <g
           style="fill:#000000"
           inkscape:export-ydpi="95"
           inkscape:export-xdpi="95"
           clip-path="url(#clipPath968)"
           transform="translate(265.69964,-22.713455)"
           id="g956">
          <path
             inkscape:connector-curvature="0"
             d="m 57.4545,174.8313 110.02,-0.7403 -1.374,-1.3734 -0.316,-2.3254 -4.017,-3.2762 -3.17,2.325 -38.681,0.5286 0.316,-18.8122 2.96,-1.1628 -0.74,-1.2688 2.959,-0.5273 -2.959,-1.375 0.951,-0.3164 -2.009,-3.0645 1.163,-26.634 1.903,0.1059 4.861,-2.3242 2.009,-0.1067 -3.594,4.5449 h 1.058 l 2.959,-2.9589 3.275,-1.4793 h 0.74 l -0.106,1.2675 -2.642,3.2762 0.846,0.1055 3.276,-2.959 2.748,-1.2684 2.854,-0.7394 -2.536,3.3816 0.95,0.1059 4.122,-4.0156 1.269,0.6335 -2.009,3.4875 4.968,-3.8046 2.113,0.5293 -2.43,3.2753 1.268,0.8458 4.226,-4.4387 1.904,1.0566 -3.277,4.4387 1.162,-0.1055 4.546,-4.4386 2.853,-0.3165 -3.276,4.6497 0.951,0.5281 3.911,-4.1223 1.901,0.1067 -0.422,1.6906 -2.326,1.3738 0.212,1.1633 4.017,-1.1633 0.633,1.4797 2.431,-0.2121 -1.585,-1.1621 1.903,-0.211 0.739,1.0567 0.951,-0.9512 1.902,-0.6348 1.163,0.1067 0.106,2.1133 2.326,-0.1055 -0.74,-2.3254 0.528,-0.3164 0.316,-2.1141 2.115,-1.0566 -2.536,-1.5859 0.211,-4.54418 -7.187,-0.73907 -3.065,1.79571 -4.862,-0.21094 -2.008,-0.5293 -0.422,0.74024 -3.805,-0.6336 -1.374,0.6336 -4.545,-0.84453 -1.057,1.05546 -7.821,-0.95117 -0.527,1.37418 -3.7,-0.52847 -1.269,1.05667 -0.951,-0.95121 h -11.414 l -0.74,1.58521 -1.69,-1.58521 1.268,-1.58476 -1.057,-1.26875 -0.422,-2.00664 0.845,-2.53711 -1.162,-0.31758 0.211,-2.21875 -5.18,1.26758 -0.211,4.54492 -0.845,0.8457 0.211,2.85352 -2.43,-2.00859 -2.219,0.8457 -40.691,0.5293 h -4.649 l -27.48,0.73906 -3.487,-0.31719 h -8.244 l -2.113,1.1629 -1.057,-0.52931 -24.837,0.31761 1.057,1.9019 c 0,0 7.927,4.968 12.366,4.8625 4.438,-0.1062 30.648,-0.1062 30.648,-0.1062 0,0 7.611,-1.3731 17.544,-1.6906 9.935,-0.3165 27.902,0.423 27.902,0.423 l 0.212,1.2676 c 0,0 -15.324,0.4226 -21.349,-0.211 -6.024,-0.6339 -27.373,1.4793 -27.373,1.4793 0,0 0.739,1.4797 1.69,1.2676 0.952,-0.2109 43.755,-0.9512 43.755,-0.9512 l 1.162,1.0579 -1.267,1.1621 0.951,0.6336 25.788,-0.3172 0.106,-2.1125 2.43,-2.7481 -1.374,-1.3738 2.115,-0.4231 -0.107,9.8293 4.65,-0.1054 v 10.041 l -1.585,0.2098 -0.211,-7.7149 c 0,0 -0.846,-1.0555 -2.747,-1.0555 l -0.107,20.2911 h -1.268 l 0.74,3.3816 -2.642,-2.748 0.106,2.4304 2.641,2.5364 0.106,14.0566 -1.796,3.5937 -3.383,-0.2109 -3.382,1.1621 -28.958,-0.6344 -9.723,3.6993 c 0,0 -5.285,0.6339 -8.455,0.423 l -0.106,1.268"
             style="fill:#000000;fill-opacity:1;fill-rule:nonzero;stroke:none;stroke-width:0.1"
             id="path40" />
          <path
             inkscape:connector-curvature="0"
             d="m -120.8395,116.7035 43.2262,-0.8457 c 0,0 -6.1301,0.9508 -7.3981,1.4793 -1.2683,0.5285 2.1145,0.4231 2.1145,0.4231 0,0 6.975,-0.7395 9.6164,-0.9516 2.6426,-0.2117 8.6668,-0.3164 12.6828,0.4231 4.016,0.7402 19.0234,-0.211 19.0234,-0.211 0,0 -7.8203,-0.6347 -9.4058,-1.2683 0,0 6.8691,-0.3164 9.723,-0.211 2.8535,0.1055 8.1383,1.2672 8.5606,0.8457 0.423,-0.4242 3.6992,-0.1066 3.6992,-0.1066 l -10.6746,-5.2844 c 0,0 -15.6418,1.9028 -21.5602,1.6906 l -2.2191,0.9512 -20.2922,0.4231 -1.5848,-0.634 c 0,0 -3.2758,1.7969 -5.4957,0.423 l -17.8617,0.9512 c 0,0 -4.75585,0.4227 -7.82031,0.4227 -3.06562,0 -4.33359,1.4796 -4.33359,1.4796"
             style="fill:#000000;fill-opacity:1;fill-rule:nonzero;stroke:none;stroke-width:0.1"
             id="path42" />
          <path
             inkscape:connector-curvature="0"
             d="m -26.4606,110.8899 c 0,0 6.7641,5.073 11.0971,4.6515 4.333,-0.423 9.406,-0.634 9.406,-0.634 0,0 -3.804,-2.5371 -5.496,-5.28511 0,0 -5.495,0.3164 -7.397,1.47971 l -1.48,-1.0567 c 0,0 -5.1789,0.211 -6.1301,0.8446"
             style="fill:#000000;fill-opacity:1;fill-rule:nonzero;stroke:none;stroke-width:0.1"
             id="path44" />
          <path
             inkscape:connector-curvature="0"
             d="m -9.7615,108.4594 c 0,0 1.69,8.6668 17.332,9.618 l 0.106,-0.6336 c 0,0 -6.87,-1.0578 -12.366,-7.0821 0,0 -0.951,-2.00777 -5.072,-1.9023"
             style="fill:#000000;fill-opacity:1;fill-rule:nonzero;stroke:none;stroke-width:0.1"
             id="path46" />
          <path
             inkscape:connector-curvature="0"
             d="m -11.0305,117.4438 c 0,0 -9.406,0 -14.7957,-4.1223 0,0 -0.1063,-0.4226 -2.8539,-2.2195 -2.7485,-1.7969 -8.0324,-4.4387 -8.0324,-4.4387 l 1.057,-1.26836 c 0,0 -1.057,0.42266 -4.3332,-1.05703 -3.2762,-1.47929 -7.9266,-1.90195 -9.6172,-1.79648 0,0 2.7477,-0.95117 4.5437,-2.21992 0,0 -1.5847,0.21172 -7.5035,0.95117 -5.9179,0.73945 -13.4222,5.39062 -18.389,11.20232 h 5.4957 l 0.9511,-1.0558 1.5856,0.5273 c 0,0 -0.4231,-1.7961 1.7961,-2.74687 2.2191,-0.95117 4.7558,-1.79687 8.8781,-1.79687 4.1215,0 9.7231,0.63476 14.2676,3.06524 4.5441,2.4297 15.4301,10.1457 26.95,6.9758"
             style="fill:#000000;fill-opacity:1;fill-rule:nonzero;stroke:none;stroke-width:0.1"
             id="path48" />
        </g>
      </g>
    </g>
    <path
       style="fill:#000000;stroke-width:0.31477371"
       d="m 9.6515728,277.60819 c -3.0524411,-0.9481 -3.9486008,-1.33006 -5.389581,-2.29705 -5.4356409,-3.64771 -3.44370932,-9.95861 3.8245566,-12.11704 3.1081566,-0.92303 6.2070016,-0.45109 8.9541236,1.36367 1.351065,0.89251 2.683666,2.6249 2.683666,3.48879 0,0.98341 -1.40498,2.66719 -2.823509,3.38382 -3.63738,1.83753 -8.5641975,-0.15139 -7.2919286,-2.9437 0.4580086,-1.00523 1.1592326,-1.25234 2.1099386,-0.74353 0.93035,0.49791 0.973202,0.96669 0.136152,1.48945 -0.752327,0.46983 -0.829139,1.50298 -0.131644,1.77062 0.966473,0.37088 1.706218,0.18156 2.675816,-0.68476 0.745281,-0.66592 1.018974,-1.21955 1.141861,-2.30978 0.143312,-1.27148 0.05114,-1.55976 -0.813494,-2.54454 -1.38916,-1.58216 -3.203973,-2.04726 -5.4456239,-1.3956 -1.9894574,0.57835 -3.1881634,1.703 -3.8675504,3.62859 -1.0233433,2.90047 -0.2663826,5.26644 2.209635,6.90649 4.3382843,2.87355 8.9426213,2.48067 12.5447023,-1.07046 1.967617,-1.93979 2.800292,-3.89936 2.608589,-6.13894 -0.297638,-3.47717 -2.112653,-5.59534 -5.65994,-6.60531 -8.4210685,-2.39761 -9.2267661,-2.80601 -10.5575581,-5.35155 -0.6201933,-1.18632 -0.7091012,-1.7322 -0.5866026,-3.60165 0.1607998,-2.45394 0.6891742,-3.70705 2.1918488,-5.19827 2.2921159,-2.27464 4.3216729,-2.79197 7.2952369,-1.85953 1.046797,0.32825 2.087548,0.59864 2.312782,0.60088 0.225234,0.003 0.882339,-0.51206 1.460235,-1.14287 l 1.050719,-1.14691 0.182018,0.91084 c 0.100113,0.50096 0.408327,2.32732 0.684925,4.05858 0.276601,1.73125 0.574082,3.39562 0.661072,3.69858 0.296784,1.03367 -0.756052,0.57622 -1.811182,-0.78694 -1.754183,-2.26627 -3.09817,-3.29768 -4.988034,-3.82795 -3.967871,-1.11333 -6.6203233,-0.12683 -6.6203233,2.46222 0,1.08892 0.8737985,1.59895 5.1930863,3.03118 1.991466,0.66034 4.377261,1.55847 5.301767,1.99582 2.352021,1.11269 4.67932,3.31166 5.752918,5.43568 0.811818,1.6061 0.907402,2.11265 0.907402,4.80867 0,2.8061 -0.07519,3.16511 -1.092551,5.2169 -1.362681,2.74821 -4.340488,5.83894 -6.670776,6.92376 -1.433846,0.6675 -2.117861,0.77885 -4.670239,0.76027 -1.644693,-0.012 -3.2028236,-0.0878 -3.4625132,-0.16843 z m 99.1830472,-3.93327 c -0.93611,-0.53677 -2.04649,-1.38534 -2.4675,-1.88568 -0.9378,-1.11451 -1.23179,-1.131 -2.03177,-0.11398 -2.22745,2.83172 -6.457777,2.53311 -10.04661,-0.70919 -1.834988,-1.65779 -2.560061,-3.27272 -2.72406,-6.06722 -0.167866,-2.86047 0.68506,-5.7189 2.050167,-6.87067 2.815401,-2.37544 6.764033,-2.51891 9.093583,-0.33043 0.47447,0.44573 0.74697,0.52876 0.90361,0.2753 0.12335,-0.19961 0.3,-2.38574 0.39255,-4.85811 0.1606,-4.29069 0.1376,-4.52588 -0.50585,-5.16931 -0.42776,-0.42777 -1.06995,-0.67412 -1.75725,-0.67412 -1.64184,0 -1.61538,-0.51147 0.0581,-1.12343 3.46093,-1.26558 6.0423,-2.4089 6.39312,-2.8316 0.61292,-0.73853 1.34888,-0.56928 1.11507,0.25645 -0.63381,2.23814 -0.84639,6.82386 -0.74991,16.1764 0.11421,11.06549 0.14392,11.28498 1.85736,13.697 1.08533,1.5278 0.76567,1.57403 -1.58063,0.22862 z m -6.04784,-2.33076 1.69341,-0.78831 -0.23122,-1.33334 c -0.12719,-0.73334 -0.32262,-2.96948 -0.43432,-4.96922 -0.2194,-3.92783 -0.65485,-5.10365 -2.0925,-5.65024 -1.02376,-0.38923 -3.284656,0.40364 -4.36425,1.53049 -1.9753,2.06177 -2.66331,6.64054 -1.379626,9.18156 1.400886,2.77303 3.723426,3.4652 6.808506,2.02906 z m 9.79587,3.13425 c 0,-0.0981 0.3402,-0.62929 0.75598,-1.18039 1.87121,-2.48018 1.89469,-2.6434 2.00943,-13.96729 0.10339,-10.2022 0.0907,-10.46227 -0.54284,-11.09577 -0.442,-0.44199 -1.05582,-0.6487 -1.92637,-0.6487 -1.7462,0 -1.32707,-0.44601 1.20239,-1.27949 2.14384,-0.70639 4.37609,-1.69644 5.6482,-2.50504 1.02694,-0.65276 1.17548,-0.22845 0.68853,1.96679 -0.47283,2.13149 -0.61562,10.98389 -0.19384,12.01635 0.23669,0.57938 0.26623,0.57739 0.94862,-0.0636 1.74065,-1.63525 4.53721,-2.06084 6.88641,-1.04801 3.00306,1.29475 4.51206,4.19503 4.2798,8.22565 -0.16376,2.84177 -0.92213,4.49315 -2.80258,6.10276 -2.81389,2.40858 -5.88722,3.23288 -8.00515,2.14707 -0.68014,-0.34871 -1.58002,-1.00191 -1.99973,-1.45156 -0.41971,-0.44967 -0.8844,-0.81758 -1.03263,-0.81758 -0.14824,0 -0.69034,0.47929 -1.20467,1.06507 -0.51433,0.58578 -1.71787,1.43566 -2.67456,1.88864 -1.83268,0.86773 -2.03699,0.93244 -2.03699,0.64518 z m 13.56741,-3.05058 c 2.28768,-1.52028 3.07543,-4.94657 1.94327,-8.45214 -1.35227,-4.18702 -6.16539,-6.06951 -7.58006,-2.96467 -0.20682,0.45395 -0.37605,2.13864 -0.37605,3.74377 0,1.72817 -0.20036,3.59311 -0.4913,4.57279 -0.55757,1.87754 -0.39551,2.26894 1.2429,3.00169 2.32344,1.03913 3.80416,1.06688 5.26124,0.0985 z m 81.49425,2.27779 c -0.95218,-0.51689 -2.09569,-1.36422 -2.54112,-1.88295 -0.93878,-1.09332 -1.35565,-1.17056 -1.92656,-0.357 -0.737,1.05029 -2.81752,2.24681 -3.90674,2.24681 -2.53776,0 -6.3669,-2.12637 -7.69296,-4.27197 -0.78186,-1.26509 -1.55079,-3.92977 -1.5562,-5.393 -0.004,-1.27625 1.31898,-4.95939 2.08841,-5.81089 0.99446,-1.10051 3.43311,-2.15147 4.99232,-2.15147 1.39245,0 3.49979,0.81487 4.59803,1.77798 0.45416,0.39827 0.5291,0.31927 0.70657,-0.74492 0.3557,-2.13267 0.61081,-7.22528 0.40337,-8.05178 -0.31358,-1.24937 -1.05935,-1.79494 -2.45363,-1.79494 -1.9571,0 -1.34846,-0.62873 1.65792,-1.71264 1.46898,-0.52962 3.34793,-1.36496 4.17544,-1.85632 0.82752,-0.49135 1.57005,-0.8279 1.65009,-0.74786 0.0801,0.0801 -0.0727,2.01825 -0.33948,4.30713 -0.57512,4.9349 -0.65697,17.8219 -0.13462,21.19661 0.33202,2.14511 1.46388,4.9764 2.16182,5.40776 0.37178,0.22978 0.43258,0.79333 0.0847,0.78492 -0.12984,-0.003 -1.01514,-0.4286 -1.96734,-0.94547 z m -5.888,-2.38648 c 1.45305,-0.69292 1.72995,-1.58601 1.04656,-3.37546 -0.34875,-0.9132 -0.50971,-2.34463 -0.50971,-4.53301 0,-2.91173 -0.0669,-3.27614 -0.74664,-4.06637 -0.56689,-0.65904 -1.01272,-0.86047 -1.85191,-0.83668 -2.79126,0.0791 -4.68573,2.09944 -5.46262,5.82549 -0.4102,1.96733 -0.40745,2.39117 0.0249,3.82847 0.5523,1.83602 1.04283,2.56961 2.28671,3.41988 1.05699,0.72252 3.39409,0.6049 5.2127,-0.26232 z m -171.728291,1.54147 c -1.36282,-0.93573 -3.150671,-3.70938 -3.686552,-5.71927 -0.829413,-3.11082 1.287774,-8.05519 4.053391,-9.4661 4.682128,-2.38865 7.807356,-2.0437 11.077159,1.22266 2.90981,2.90674 3.481077,5.94096 1.837744,9.76099 -0.814729,1.8939 -2.313117,3.29446 -4.612408,4.31132 -1.383348,0.61178 -2.188694,0.73894 -4.58109,0.72335 -2.589443,-0.0168 -3.030624,-0.10683 -4.088244,-0.83295 z m 6.934018,-0.4283 c 1.899709,-0.66223 3.228045,-3.65221 3.207022,-7.21872 -0.02559,-4.34334 -2.231551,-7.55457 -5.189593,-7.55457 -0.935905,0 -1.386192,0.22566 -2.225032,1.11509 -1.229056,1.30318 -2.327789,4.48874 -2.327789,6.74897 0,2.61439 1.636496,5.50326 3.750544,6.62076 1.337247,0.70687 1.527968,0.72662 2.784848,0.28847 z m 11.249323,0.75801 c -2.474144,-1.30203 -3.474384,-3.14828 -2.955872,-5.456 0.62813,-2.79561 3.112876,-5.32565 7.73567,-7.8767 2.457656,-1.35623 3.017957,-1.88383 2.000626,-1.88383 -0.745248,0 -4.531195,0.9859 -6.583921,1.71452 -2.026003,0.71914 -2.506769,0.65717 -1.702031,-0.21934 0.35763,-0.38954 1.092601,-1.59354 1.63327,-2.67557 0.540664,-1.08204 1.115341,-1.96734 1.277053,-1.96734 0.161715,0 0.679816,0.35754 1.151338,0.79453 1.328282,1.23101 3.191227,1.49657 6.17145,0.87975 4.159779,-0.86096 3.980519,-0.16069 -0.699257,2.73157 -4.794677,2.96327 -6.290753,4.96195 -6.295313,8.41022 -0.0023,1.68387 1.308741,3.2793 3.328394,4.05061 1.706968,0.6519 3.055094,0.35356 5.057848,-1.11928 2.128628,-1.56542 2.314307,-2.27074 2.314307,-8.79126 v -5.69705 h 0.739965 c 0.406977,0 1.190971,0.15723 1.742206,0.34939 0.741675,0.25854 1.379796,0.25431 2.454445,-0.0163 1.986472,-0.50019 2.32726,-0.0119 0.729346,1.046 -0.706468,0.46752 -1.420429,1.20759 -1.586582,1.64461 -0.42954,1.12977 -0.334491,10.71262 0.121433,12.24281 0.30114,1.01071 0.575807,1.31852 1.392292,1.56028 0.559432,0.16564 1.017142,0.41353 1.017142,0.55086 0,0.29013 -7.039932,0.34461 -7.327836,0.0568 -0.106133,-0.10612 0.09512,-0.58262 0.447208,-1.05885 0.352094,-0.47624 0.592383,-1.18807 0.53397,-1.58186 -0.103135,-0.69528 -0.145543,-0.68303 -1.467223,0.42383 -1.811955,1.51745 -4.7574,2.4136 -7.879268,2.39725 -1.562014,-0.009 -2.737676,-0.18697 -3.35066,-0.50956 z m 27.700091,0.007 c -1.308602,-0.4892 -3.788296,-0.61805 -4.928709,-0.25609 -0.711522,0.22582 -0.622294,-0.11838 0.312675,-1.20603 0.951313,-1.10668 1.547642,-7.02028 1.010839,-10.02407 l -0.380635,-2.12988 -1.23907,-0.0955 c -1.718363,-0.1325 -1.565679,-0.58173 0.407701,-1.19959 0.918205,-0.28749 2.395861,-0.89398 3.283684,-1.34776 0.887822,-0.45379 1.702298,-0.73698 1.809948,-0.62934 0.107642,0.10767 0.195727,0.65953 0.195727,1.22641 0,0.56686 0.120763,1.10529 0.268366,1.19652 0.147593,0.0913 1.419666,-0.42237 2.82682,-1.1413 3.223093,-1.64672 5.548672,-1.92619 7.546663,-0.90689 2.102979,1.07286 3.01675,3.72224 2.263879,6.56394 -0.621509,2.34588 -2.54239,5.99644 -3.951439,7.50951 -0.70748,0.75972 -1.134782,1.38077 -0.949558,1.38012 0.405264,-8.7e-4 3.467859,-1.52436 4.630247,-2.30249 l 0.830968,-0.55627 0.349431,2.00661 c 0.192199,1.10363 0.34944,2.11575 0.34944,2.24915 0,0.29436 -8.481981,-0.1148 -9.079174,-0.43799 -0.308885,-0.16715 -0.08859,-0.51804 0.81713,-1.30158 1.875176,-1.62221 2.81685,-3.30869 3.174218,-5.68483 0.374881,-2.49264 0.03344,-4.20272 -1.07859,-5.40199 -1.585123,-1.70949 -5.481794,-1.93189 -7.012436,-0.40023 -0.811359,0.81189 -0.828585,0.91564 -0.828585,4.99218 0,3.88366 0.05806,4.28707 0.865629,6.01103 0.476098,1.01639 0.865629,1.97252 0.865629,2.12473 0,0.39663 -0.907318,0.30503 -2.360798,-0.23833 z m 61.671579,-0.0778 c -1.23021,-0.75018 -3.02544,-3.21669 -3.75156,-5.15433 -1.10081,-2.93752 0.0554,-7.12973 2.57909,-9.35115 1.57116,-1.38299 4.57523,-2.53828 6.53018,-2.51135 2.91507,0.0403 6.33867,2.39349 7.65047,5.25883 0.67935,1.4839 0.76636,2.04132 0.64336,4.12178 -0.11659,1.97274 -0.3103,2.67466 -1.07589,3.89931 -1.03828,1.66084 -2.73704,3.01744 -4.76725,3.80704 -1.95408,0.76001 -6.51424,0.71905 -7.8084,-0.0701 z m 7.67289,-1.37926 c 1.57369,-1.46806 2.08639,-2.98592 2.09824,-6.21194 0.01,-2.64158 -0.0863,-3.17392 -0.82348,-4.56423 -1.15873,-2.18543 -2.16011,-3.03267 -3.80334,-3.21789 -1.16794,-0.13165 -1.5272,-0.0239 -2.41666,0.7245 -1.4706,1.23742 -2.26378,3.27474 -2.46362,6.32781 -0.14705,2.24682 -0.0792,2.7487 0.53221,3.93467 1.88567,3.65778 4.80887,4.93606 6.87665,3.00708 z m 11.78778,1.38047 c -3.36714,-1.16321 -4.60567,-3.51609 -3.38662,-6.43366 0.83134,-1.98969 3.01141,-3.6861 6.38575,-4.96901 0.80391,-0.30565 0.80409,-0.30625 -0.4476,1.54406 -1.11267,1.64477 -1.73605,4.12153 -1.27683,5.07295 0.61933,1.28312 2.86982,2.77627 4.78308,3.17347 0.95815,0.19891 1.67116,0.47641 1.58447,0.61666 -0.0867,0.14028 -0.79529,0.55478 -1.57467,0.92114 -1.74094,0.81833 -3.83962,0.84407 -6.06758,0.0744 z m 13.61471,0.0665 c -1.49111,-0.4235 -3.25134,-0.39981 -4.78012,0.0643 -0.68467,0.20788 -0.68585,0.20067 -0.24221,-1.47509 0.68965,-2.60503 1.48706,-9.00348 1.26776,-10.17249 -0.21894,-1.16699 -0.93842,-1.9825 -1.27237,-1.44216 -0.26,0.42066 -1.42593,0.43317 -1.42593,0.0152 0,-0.17312 0.16591,-0.31478 0.36868,-0.31478 0.20278,0 0.61849,-0.22607 0.92381,-0.50238 0.44996,-0.4072 0.49032,-0.64458 0.21309,-1.25304 -0.18812,-0.41287 -0.58871,-0.82896 -0.89021,-0.92465 -0.57832,-0.18355 -3.60161,0.55597 -7.54039,1.84445 -1.29845,0.42476 -2.73718,0.85676 -3.19719,0.96 -0.46001,0.10327 -1.06202,0.2743 -1.33779,0.38012 -0.85263,0.32718 -0.55776,-0.47101 0.66038,-1.78757 0.63897,-0.69062 1.49689,-1.81763 1.90647,-2.50448 0.77936,-1.30693 1.2424,-1.55095 1.52846,-0.80549 0.30768,0.8018 2.0713,1.28728 4.21695,1.16081 5.11079,-0.3012 5.79695,-0.23651 7.17603,0.67662 2.07057,1.37098 2.31599,2.14795 2.60627,8.25098 0.14034,2.95039 0.34594,5.66578 0.45688,6.0342 0.111,0.36843 0.54382,0.82574 0.96197,1.01626 0.78343,0.35696 1.0669,1.33466 0.36679,1.26515 -0.21642,-0.0216 -1.10171,-0.24023 -1.96733,-0.48608 z m 2.99034,-0.14199 c 0,-0.3134 0.2783,-0.71875 0.61845,-0.90079 1.14271,-0.61156 1.36075,-2.30197 1.0546,-8.17612 -0.26341,-5.05438 -0.33321,-5.48278 -0.97835,-6.00519 -0.38208,-0.30939 -0.6947,-0.86807 -0.6947,-1.24151 0,-0.5612 0.12288,-0.63984 0.70823,-0.45324 0.38955,0.12415 1.20403,0.18239 1.80996,0.1294 1.11939,-0.0979 2.85626,-0.10243 4.56423,-0.0119 0.51937,0.0276 1.79419,-0.0367 2.83295,-0.14279 2.20038,-0.22469 3.50528,0.38149 4.56591,2.12108 0.90282,1.48073 0.80035,2.71922 -0.33938,4.10191 -0.84957,1.03069 -1.13588,1.17343 -2.35355,1.17343 -1.13593,0 -1.48059,-0.1439 -1.90837,-0.79676 -0.28712,-0.43822 -0.46744,-0.82775 -0.40071,-0.86563 0.0667,-0.0378 0.39516,-0.21998 0.72984,-0.40468 1.08183,-0.59701 1.29031,-1.25021 0.69096,-2.16492 -0.79747,-1.21709 -1.84287,-1.61119 -3.00119,-1.13139 -1.81238,0.75071 -2.05793,1.54378 -2.09904,6.77986 -0.0203,2.59688 0.0984,5.0049 0.26399,5.35115 0.16558,0.34626 0.80466,1.06548 1.42018,1.59828 1.95217,1.68985 0.95994,2.03605 -3.26386,1.13881 -0.8421,-0.17889 -1.79616,-0.14476 -2.75427,0.0985 -1.34188,0.34071 -1.46588,0.324 -1.46588,-0.19761 z"
       id="path871"
       inkscape:connector-curvature="0" />
    <path
       style="fill:#000000;stroke-width:0.44185731"
       d="m 64.258579,226.71736 c -7.155914,-1.32372 -11.62942,-3.11715 -15.998717,-6.41388 -3.241895,-2.44609 -7.996562,-8.53087 -11.110157,-14.21822 -3.622961,-6.61775 -4.247447,-7.7256 -5.168174,-9.16853 -0.542752,-0.85057 -1.691099,-2.21881 -2.551884,-3.0405 l -1.565061,-1.49401 -1.465654,0.85349 c -1.400816,0.81572 -1.477759,0.9991 -1.739294,4.14515 -0.85339,10.26555 -0.243682,15.10369 2.058658,16.33586 0.830031,0.44422 0.963978,0.71112 0.58565,1.16698 -0.370634,0.44658 -2.151132,0.59104 -7.285201,0.59104 -6.573689,0 -6.794685,-0.0297 -6.794685,-0.91338 0,-0.50237 0.675991,-1.55094 1.502204,-2.33015 2.01125,-1.89685 2.253582,-3.82874 2.253582,-17.96562 0,-13.48009 -0.185454,-14.89597 -2.235868,-17.07004 -1.666632,-1.76714 -1.88928,-2.57725 -0.820995,-2.98719 0.91026,-0.3493 12.273184,-0.3493 13.183444,0 1.017011,0.39025 0.863465,0.97596 -0.57264,2.18436 -0.783122,0.65895 -1.462039,1.82641 -1.767429,3.03922 -0.535372,2.12614 -0.597099,7.5441 -0.125768,11.03846 l 0.292683,2.16988 1.812275,-1.72802 c 4.11885,-3.92739 8.971124,-11.17163 9.201341,-13.73722 0.07378,-0.82235 0.245757,-1.60675 0.382147,-1.74314 0.303048,-0.30306 11.058903,-1.02987 11.338042,-0.76615 0.29775,0.28128 -10.012192,10.53253 -12.659606,12.58753 l -2.297806,1.78364 2.585724,3.82943 c 1.422151,2.1062 3.625542,5.71839 4.896428,8.0271 5.522433,10.03211 9.519029,14.19861 18.101682,18.87118 6.001156,3.26716 14.164502,5.27103 19.773114,4.85374 1.761905,-0.1311 3.203463,-0.0768 3.203463,0.12074 0,0.19751 -0.94447,0.81619 -2.098821,1.37482 -2.681698,1.29779 -9.637362,1.57922 -14.912684,0.60338 z m -7.231684,-12.0903 c -1.304191,-0.45035 -2.994295,-1.44186 -3.755788,-2.20335 -1.255195,-1.2552 -1.384534,-1.64172 -1.384534,-4.13765 0,-2.1709 0.216449,-3.05658 1.023534,-4.18811 1.276255,-1.78933 4.141532,-3.78578 7.115863,-4.95815 2.143091,-0.84472 2.249814,-0.8498 1.841846,-0.0875 -0.238182,0.44506 -0.730969,1.05644 -1.095076,1.35862 -0.364108,0.30218 -1.095572,1.85226 -1.625478,3.44464 -0.908353,2.7296 -0.92274,2.9806 -0.251532,4.38815 0.862307,1.80828 2.753814,3.04439 6.120144,3.99955 1.388603,0.39399 2.418995,0.88743 2.289775,1.09653 -0.129226,0.20908 -1.008888,0.77498 -1.954804,1.25755 -2.157969,1.10092 -5.190515,1.11174 -8.32395,0.0297 z m 18.386845,0.0351 c -2.129289,-0.58235 -2.874892,-0.60642 -4.588481,-0.14813 -1.125331,0.30098 -2.104289,0.48901 -2.175455,0.41783 -0.07116,-0.0711 0.249266,-1.71794 0.712072,-3.65951 1.106234,-4.64091 1.651079,-13.62553 0.882442,-14.55166 -0.405293,-0.48835 -0.773679,-0.55226 -1.363584,-0.23654 -0.444549,0.23791 -1.020179,0.43256 -1.279178,0.43256 -0.819406,0 -0.509717,-0.65713 0.523274,-1.11032 1.300757,-0.57068 1.480884,-2.04705 0.372168,-3.05043 -0.793616,-0.7182 -1.116079,-0.74264 -3.222917,-0.24429 -1.287594,0.30458 -3.832343,1.03634 -5.655004,1.62616 -5.781217,1.8708 -9.015939,2.72053 -9.415734,2.47345 -0.213287,-0.13176 0.403293,-1.06149 1.37018,-2.06593 0.966885,-1.00447 2.293217,-2.69161 2.947409,-3.74925 l 1.189431,-1.92298 0.960355,0.9022 c 1.416329,1.33059 4.527217,1.89589 7.633606,1.38718 5.087311,-0.83312 7.279643,-0.31925 9.848682,2.30843 1.574774,1.61071 1.712143,2.30201 2.223297,11.18854 0.223337,3.8827 0.531586,7.37947 0.684999,7.77058 0.153423,0.39114 0.765481,0.97153 1.360147,1.28979 1.24704,0.66738 1.449547,1.7828 0.307957,1.69624 -0.425288,-0.0322 -1.917339,-0.37152 -3.315666,-0.75396 z m 12.101307,-0.0351 c -1.30419,-0.45035 -2.99429,-1.44186 -3.75579,-2.20335 -1.25519,-1.2552 -1.38453,-1.64172 -1.38453,-4.13765 0,-2.1709 0.21645,-3.05658 1.02353,-4.18811 1.27626,-1.78933 4.14154,-3.78578 7.11587,-4.95815 2.14309,-0.84472 2.24981,-0.8498 1.84184,-0.0875 -0.23818,0.44506 -0.73097,1.05644 -1.09507,1.35862 -0.36411,0.30218 -1.09558,1.85226 -1.62548,3.44464 -0.90835,2.7296 -0.92274,2.9806 -0.25153,4.38815 0.8623,1.80828 2.75381,3.04439 6.12014,3.99955 1.3886,0.39399 2.419,0.88743 2.28978,1.09653 -0.12923,0.20908 -1.00889,0.77498 -1.95481,1.25755 -2.15797,1.10092 -5.19051,1.11174 -8.32395,0.0297 z m 18.386853,0.0351 c -2.12929,-0.58235 -2.87489,-0.60642 -4.58848,-0.14813 -1.12533,0.30098 -2.104293,0.48901 -2.175463,0.41783 -0.0712,-0.0711 0.24927,-1.71794 0.71207,-3.65951 1.106243,-4.64091 1.651083,-13.62553 0.882453,-14.55166 -0.4053,-0.48835 -0.773683,-0.55226 -1.363593,-0.23654 -0.44455,0.23791 -1.02018,0.43256 -1.27918,0.43256 -0.8194,0 -0.50971,-0.65713 0.52328,-1.11032 1.30075,-0.57068 1.480883,-2.04705 0.37216,-3.05043 -0.79361,-0.7182 -1.11607,-0.74264 -3.22291,-0.24429 -1.2876,0.30458 -3.83234,1.03634 -5.65501,1.62616 -5.78121,1.8708 -9.01593,2.72053 -9.41573,2.47345 -0.21329,-0.13176 0.40329,-1.06149 1.37018,-2.06593 0.96689,-1.00447 2.29322,-2.69161 2.94741,-3.74925 l 1.18943,-1.92298 0.96036,0.9022 c 1.41632,1.33059 4.52721,1.89589 7.6336,1.38718 5.08731,-0.83312 7.279643,-0.31925 9.848683,2.30843 1.57478,1.61071 1.71215,2.30201 2.2233,11.18854 0.22334,3.8827 0.53159,7.37947 0.685,7.77058 0.15342,0.39114 0.76548,0.97153 1.36015,1.28979 1.24704,0.66738 1.44954,1.7828 0.30795,1.69624 -0.42528,-0.0322 -1.91734,-0.37152 -3.31566,-0.75396 z m 5.85634,0.4076 c 0,-0.22277 0.54658,-0.80318 1.21463,-1.2898 1.11746,-0.81402 1.23779,-1.19698 1.50413,-4.78682 1.13235,-15.26233 1.15437,-14.94198 -1.06673,-15.51752 -0.78772,-0.20413 -1.49421,-0.70518 -1.57328,-1.11582 -0.11295,-0.58649 0.19162,-0.74534 1.42901,-0.74534 0.86491,0 2.45478,-0.23596 3.53305,-0.52435 2.30047,-0.61528 3.35448,-0.0695 3.35448,1.73699 0,1.06278 0.0375,1.07745 0.99418,0.38888 4.01731,-2.89144 6.37434,-3.16118 9.16817,-1.0492 1.04481,0.78982 2.14717,1.62056 2.44969,1.8461 0.37414,0.27892 1.02429,0.01 2.03289,-0.8402 4.60312,-3.88114 9.81179,-2.95968 12.29772,2.17557 0.89242,1.8435 0.9386,2.25131 0.46698,4.12426 -0.64891,2.57707 -3.01686,6.52501 -6.07849,10.13432 -2.44663,2.88431 -2.63713,3.21678 -1.84312,3.21678 0.77588,0 4.945,-2.19141 5.94726,-3.12606 0.5017,-0.46786 1.11852,-0.85066 1.37071,-0.85066 0.72494,0 1.56894,5.85132 0.9049,6.27332 -0.29518,0.18756 -3.27065,0.34405 -6.6122,0.34778 -4.60502,0.005 -6.07553,-0.12843 -6.07553,-0.55169 0,-0.30715 1.16293,-1.84814 2.58429,-3.42439 1.42136,-1.57628 2.94261,-3.56028 3.38057,-4.40892 0.84646,-1.64022 1.40386,-6.70545 0.94087,-8.55012 -0.51764,-2.06247 -2.36597,-3.75309 -4.44387,-4.0647 -2.99473,-0.44908 -3.78744,0.20635 -3.78744,3.13159 0,2.91773 -1.43423,9.59454 -2.77871,12.93575 -0.92373,2.29561 -3.04933,4.56078 -3.6841,3.926 -0.16015,-0.16016 -0.0553,-1.43932 0.2331,-2.84248 0.80871,-3.93433 1.10573,-11.12933 0.54431,-13.18456 -0.61613,-2.25549 -2.11163,-3.68548 -4.21047,-4.02608 -1.31592,-0.21355 -1.83533,-0.0686 -2.7145,0.7573 -1.07384,1.00882 -1.08721,1.11543 -1.08721,8.67092 v 7.64954 l 1.65547,1.51712 c 1.87776,1.72084 1.65437,2.50557 -0.45723,1.60615 -1.7755,-0.75627 -5.04595,-0.64641 -6.35848,0.21359 -1.09909,0.72016 -3.23505,0.88306 -3.23505,0.24675 z m 46.062,-0.39229 c -4.81391,-1.91894 -8.04996,-6.46695 -8.05795,-11.3248 -0.008,-5.475 2.08491,-9.62725 5.83206,-11.56498 1.89563,-0.98027 6.02823,-1.29294 8.09099,-0.61216 3.378,1.11483 7.28179,5.948 7.28179,9.01536 0,1.85221 -1.30368,2.19615 -6.82372,1.80024 -8.48971,-0.60892 -7.95744,-0.68979 -8.11631,1.23313 -0.26854,3.25063 2.80074,8.09736 5.97823,9.44028 1.93736,0.81881 3.23234,0.7564 5.86878,-0.28278 1.23311,-0.48606 2.42725,-0.88372 2.65365,-0.88372 0.95455,0 -0.18316,1.25807 -1.90169,2.10288 -4.05744,1.99456 -7.614,2.34888 -10.80583,1.07655 z m 7.8446,-15.56903 c 0,-2.53805 -3.23572,-7.05213 -5.05501,-7.05213 -1.48437,0 -4.66586,4.64293 -4.66586,6.80914 0,1.18329 0.31593,1.24743 7.40111,1.50261 2.308,0.0832 2.31976,0.0768 2.31976,-1.25962 z m 9.05248,15.91541 c -0.15331,-0.248 0.23267,-1.05861 0.85764,-1.80133 l 1.13631,-1.35043 V 196.8538 c 0,-9.50751 -0.16784,-15.33191 -0.4574,-15.87296 -0.33416,-0.62437 -0.92948,-0.85468 -2.2093,-0.85468 -1.26266,0 -1.75187,-0.18508 -1.75187,-0.66277 0,-0.36453 0.2512,-0.6628 0.55822,-0.6628 0.89008,0 4.88542,-2.85452 6.75124,-4.82351 0.94038,-0.99239 1.96707,-1.80435 2.28152,-1.80435 0.45858,0 0.57223,3.65123 0.5742,18.44755 0.001,10.8472 0.18321,19.09821 0.4412,20.02685 0.24128,0.86862 0.93611,2.04658 1.54402,2.6177 2.07685,1.9511 1.58835,2.20992 -4.17088,2.20992 -3.11142,0 -5.39057,-0.185 -5.5549,-0.4509 z m 18.09283,-0.37838 c -3.12386,-1.90495 -5.91083,-6.84162 -5.92646,-10.49781 -0.0247,-5.76832 3.41781,-10.6368 8.80848,-12.45727 1.56295,-0.5278 3.66609,-0.95965 4.67369,-0.95965 2.58189,0 6.89909,2.25246 8.74462,4.5624 2.48671,3.11254 3.08404,4.87841 2.85196,8.43131 -0.33873,5.18532 -2.67235,8.47424 -7.53721,10.62271 -3.31788,1.46525 -9.44345,1.62258 -11.61508,0.29831 z m 11.14338,-2.50418 c 5.389,-6.09449 2.09191,-19.20126 -4.83019,-19.20126 -3.20435,0 -5.62672,3.96509 -5.97077,9.77331 -0.23993,4.0505 0.27451,5.81279 2.433,8.33449 2.99133,3.4947 5.90772,3.87578 8.36796,1.09346 z m 12.08304,2.97666 c 0,-0.19624 0.87479,-0.9734 1.94396,-1.72702 2.64951,-1.86754 2.91688,-3.24744 3.22347,-16.63581 l 0.25159,-10.98712 -3.59321,0.31807 c -3.06416,0.27124 -3.59323,0.2189 -3.59323,-0.35553 0,-0.50865 0.73038,-0.74399 2.98254,-0.96106 1.64038,-0.15815 3.23107,-0.36652 3.53484,-0.46316 1.4877,-0.47327 -0.23228,-4.49569 -2.09436,-4.89803 -2.88344,-0.62303 -2.80527,-1.12629 0.29621,-1.90725 2.83147,-0.71298 6.40388,-2.45008 8.79995,-4.27904 1.09329,-0.83454 2.15112,-1.4164 2.35072,-1.29304 0.1996,0.12341 -0.20751,2.14298 -0.90471,4.48802 -1.46365,4.92311 -1.54272,5.84065 -0.53654,6.22674 0.98943,0.3797 4.20083,-1.38285 5.87826,-3.22623 0.75103,-0.82533 1.66523,-1.5006 2.03153,-1.5006 1.66891,0 6.45537,-2.03815 9.4352,-4.01768 1.80062,-1.19615 3.37338,-2.07533 3.49499,-1.95372 0.12157,0.12158 -0.31024,1.96232 -0.95969,4.09045 -0.64945,2.12811 -1.17831,4.40437 -1.17524,5.05833 0.0117,2.51096 2.03055,2.15223 5.4439,-0.96739 1.32995,-1.2155 2.51386,-2.20999 2.63091,-2.20999 0.11706,0 0.20247,0.74562 0.18984,1.65695 -0.0134,0.92894 0.47502,2.66621 1.11041,3.95395 0.62335,1.26335 1.03262,2.39772 0.90949,2.52085 -0.12308,0.12308 -1.24354,-0.29905 -2.4898,-0.93818 -2.52401,-1.29441 -6.69167,-1.56765 -7.4385,-0.48769 -0.23199,0.33547 -0.32629,5.85912 -0.22118,12.95675 0.20464,13.82007 0.4321,15.07924 2.90918,16.1053 1.34865,0.55862 1.92428,1.79795 0.82759,1.78178 -0.30378,-0.005 -2.17498,-0.29519 -4.15821,-0.64603 -3.56804,-0.63119 -3.96528,-0.61129 -10.20216,0.51133 -1.90079,0.34213 -1.90326,-0.64478 -0.005,-1.84551 0.76854,-0.48604 1.80475,-1.57964 2.30268,-2.43021 0.83892,-1.43307 0.91684,-2.41067 1.06231,-13.32759 l 0.15698,-11.78108 -3.58134,0.24547 c -3.12688,0.21431 -3.58132,0.15331 -3.58132,-0.48046 0,-0.39925 0.29826,-0.72592 0.66279,-0.72592 0.36453,0 0.66278,-0.17398 0.66278,-0.38663 0,-0.59033 -2.2238,-0.88871 -4.17877,-0.56069 -1.36289,0.22868 -1.81609,0.53605 -2.05476,1.3936 -0.48599,1.74608 -0.43878,12.84441 0.0835,19.63324 0.50441,6.55628 0.92891,7.85263 2.85946,8.73224 1.66862,0.76029 1.41602,1.85226 -0.35476,1.53354 -6.23688,-1.12262 -6.63412,-1.14252 -10.20214,-0.51133 -4.21021,0.7448 -4.71055,0.77639 -4.71055,0.29738 z m 24.2132,-32.14323 c 0.16939,-1.73144 -1.33982,-3.73226 -2.81519,-3.73226 -1.20299,0 -1.30738,0.49664 -0.5666,2.69567 0.69855,2.07368 1.25102,2.67126 2.32743,2.51747 0.66844,-0.0955 0.95872,-0.50322 1.05436,-1.48088 z"
       id="path884"
       inkscape:connector-curvature="0" />
  </g>
</svg>
