<?xml version="1.0" encoding="UTF-8" standalone="no"?>
<!-- Created with Inkscape (http://www.inkscape.org/) -->

<svg
   xmlns:dc="http://purl.org/dc/elements/1.1/"
   xmlns:cc="http://creativecommons.org/ns#"
   xmlns:rdf="http://www.w3.org/1999/02/22-rdf-syntax-ns#"
   xmlns:svg="http://www.w3.org/2000/svg"
   xmlns="http://www.w3.org/2000/svg"
   xmlns:sodipodi="http://sodipodi.sourceforge.net/DTD/sodipodi-0.dtd"
   xmlns:inkscape="http://www.inkscape.org/namespaces/inkscape"
   width="105.99879mm"
   height="23.652861mm"
   viewBox="0 0 105.99879 23.652861"
   version="1.1"
   id="svg8"
   inkscape:version="0.92.4 (5da689c313, 2019-01-14)"
   sodipodi:docname="sword.svg"
   inkscape:export-filename="C:\Workspace\k\assets\sword.png"
   inkscape:export-xdpi="95"
   inkscape:export-ydpi="95">
  <defs
     id="defs2">
    <clipPath
       clipPathUnits="userSpaceOnUse"
       id="clipPath968">
      <rect
         style="fill:#000000;fill-opacity:1;stroke:#ffffff;stroke-width:0;stroke-miterlimit:4;stroke-dasharray:none;stroke-opacity:1"
         id="rect970"
         width="357.85715"
         height="79.821434"
         x="-129.43898"
         y="-167.05258"
         transform="scale(1,-1)" />
    </clipPath>
  </defs>
  <sodipodi:namedview
     id="base"
     pagecolor="#ffffff"
     bordercolor="#666666"
     borderopacity="1.0"
     inkscape:pageopacity="0.0"
     inkscape:pageshadow="2"
     inkscape:zoom="1.979899"
     inkscape:cx="179.91508"
     inkscape:cy="36.589417"
     inkscape:document-units="mm"
     inkscape:current-layer="g10"
     showgrid="false"
     inkscape:window-width="1920"
     inkscape:window-height="1017"
     inkscape:window-x="1912"
     inkscape:window-y="-8"
     inkscape:window-maximized="1"
     fit-margin-top="0"
     fit-margin-left="0"
     fit-margin-right="0"
     fit-margin-bottom="0" />
  <metadata
     id="metadata5">
    <rdf:RDF>
      <cc:Work
         rdf:about="">
        <dc:format>image/svg+xml</dc:format>
        <dc:type
           rdf:resource="http://purl.org/dc/dcmitype/StillImage" />
        <dc:title />
      </cc:Work>
    </rdf:RDF>
  </metadata>
  <g
     inkscape:label="Calque 1"
     inkscape:groupmode="layer"
     id="layer1"
     transform="translate(140.10227,-185.4721)">
    <g
       transform="matrix(0.35277777,0,0,-0.35277777,-191.20571,236.39174)"
       inkscape:label="ink_ext_XXXXXX"
       id="g10"
       clip-path="none"
       mask="none">
      <g
         id="g956"
         transform="translate(265.69964,-22.713455)"
         clip-path="url(#clipPath968)"
         inkscape:export-xdpi="95"
         inkscape:export-ydpi="95">
        <path
           id="path40"
           style="fill:#231f20;fill-opacity:1;fill-rule:nonzero;stroke:none;stroke-width:0.1"
           d="m 57.4545,174.8313 110.02,-0.7403 -1.374,-1.3734 -0.316,-2.3254 -4.017,-3.2762 -3.17,2.325 -38.681,0.5286 0.316,-18.8122 2.96,-1.1628 -0.74,-1.2688 2.959,-0.5273 -2.959,-1.375 0.951,-0.3164 -2.009,-3.0645 1.163,-26.634 1.903,0.1059 4.861,-2.3242 2.009,-0.1067 -3.594,4.5449 h 1.058 l 2.959,-2.9589 3.275,-1.4793 h 0.74 l -0.106,1.2675 -2.642,3.2762 0.846,0.1055 3.276,-2.959 2.748,-1.2684 2.854,-0.7394 -2.536,3.3816 0.95,0.1059 4.122,-4.0156 1.269,0.6335 -2.009,3.4875 4.968,-3.8046 2.113,0.5293 -2.43,3.2753 1.268,0.8458 4.226,-4.4387 1.904,1.0566 -3.277,4.4387 1.162,-0.1055 4.546,-4.4386 2.853,-0.3165 -3.276,4.6497 0.951,0.5281 3.911,-4.1223 1.901,0.1067 -0.422,1.6906 -2.326,1.3738 0.212,1.1633 4.017,-1.1633 0.633,1.4797 2.431,-0.2121 -1.585,-1.1621 1.903,-0.211 0.739,1.0567 0.951,-0.9512 1.902,-0.6348 1.163,0.1067 0.106,2.1133 2.326,-0.1055 -0.74,-2.3254 0.528,-0.3164 0.316,-2.1141 2.115,-1.0566 -2.536,-1.5859 0.211,-4.54418 -7.187,-0.73907 -3.065,1.79571 -4.862,-0.21094 -2.008,-0.5293 -0.422,0.74024 -3.805,-0.6336 -1.374,0.6336 -4.545,-0.84453 -1.057,1.05546 -7.821,-0.95117 -0.527,1.37418 -3.7,-0.52847 -1.269,1.05667 -0.951,-0.95121 h -11.414 l -0.74,1.58521 -1.69,-1.58521 1.268,-1.58476 -1.057,-1.26875 -0.422,-2.00664 0.845,-2.53711 -1.162,-0.31758 0.211,-2.21875 -5.18,1.26758 -0.211,4.54492 -0.845,0.8457 0.211,2.85352 -2.43,-2.00859 -2.219,0.8457 -40.691,0.5293 h -4.649 l -27.48,0.73906 -3.487,-0.31719 h -8.244 l -2.113,1.1629 -1.057,-0.52931 -24.837,0.31761 1.057,1.9019 c 0,0 7.927,4.968 12.366,4.8625 4.438,-0.1062 30.648,-0.1062 30.648,-0.1062 0,0 7.611,-1.3731 17.544,-1.6906 9.935,-0.3165 27.902,0.423 27.902,0.423 l 0.212,1.2676 c 0,0 -15.324,0.4226 -21.349,-0.211 -6.024,-0.6339 -27.373,1.4793 -27.373,1.4793 0,0 0.739,1.4797 1.69,1.2676 0.952,-0.2109 43.755,-0.9512 43.755,-0.9512 l 1.162,1.0579 -1.267,1.1621 0.951,0.6336 25.788,-0.3172 0.106,-2.1125 2.43,-2.7481 -1.374,-1.3738 2.115,-0.4231 -0.107,9.8293 4.65,-0.1054 v 10.041 l -1.585,0.2098 -0.211,-7.7149 c 0,0 -0.846,-1.0555 -2.747,-1.0555 l -0.107,20.2911 h -1.268 l 0.74,3.3816 -2.642,-2.748 0.106,2.4304 2.641,2.5364 0.106,14.0566 -1.796,3.5937 -3.383,-0.2109 -3.382,1.1621 -28.958,-0.6344 -9.723,3.6993 c 0,0 -5.285,0.6339 -8.455,0.423 l -0.106,1.268"
           inkscape:connector-curvature="0" />
        <path
           id="path42"
           style="fill:#231f20;fill-opacity:1;fill-rule:nonzero;stroke:none;stroke-width:0.1"
           d="m -120.8395,116.7035 43.2262,-0.8457 c 0,0 -6.1301,0.9508 -7.3981,1.4793 -1.2683,0.5285 2.1145,0.4231 2.1145,0.4231 0,0 6.975,-0.7395 9.6164,-0.9516 2.6426,-0.2117 8.6668,-0.3164 12.6828,0.4231 4.016,0.7402 19.0234,-0.211 19.0234,-0.211 0,0 -7.8203,-0.6347 -9.4058,-1.2683 0,0 6.8691,-0.3164 9.723,-0.211 2.8535,0.1055 8.1383,1.2672 8.5606,0.8457 0.423,-0.4242 3.6992,-0.1066 3.6992,-0.1066 l -10.6746,-5.2844 c 0,0 -15.6418,1.9028 -21.5602,1.6906 l -2.2191,0.9512 -20.2922,0.4231 -1.5848,-0.634 c 0,0 -3.2758,1.7969 -5.4957,0.423 l -17.8617,0.9512 c 0,0 -4.75585,0.4227 -7.82031,0.4227 -3.06562,0 -4.33359,1.4796 -4.33359,1.4796"
           inkscape:connector-curvature="0" />
        <path
           id="path44"
           style="fill:#231f20;fill-opacity:1;fill-rule:nonzero;stroke:none;stroke-width:0.1"
           d="m -26.4606,110.8899 c 0,0 6.7641,5.073 11.0971,4.6515 4.333,-0.423 9.406,-0.634 9.406,-0.634 0,0 -3.804,-2.5371 -5.496,-5.28511 0,0 -5.495,0.3164 -7.397,1.47971 l -1.48,-1.0567 c 0,0 -5.1789,0.211 -6.1301,0.8446"
           inkscape:connector-curvature="0" />
        <path
           id="path46"
           style="fill:#231f20;fill-opacity:1;fill-rule:nonzero;stroke:none;stroke-width:0.1"
           d="m -9.7615,108.4594 c 0,0 1.69,8.6668 17.332,9.618 l 0.106,-0.6336 c 0,0 -6.87,-1.0578 -12.366,-7.0821 0,0 -0.951,-2.00777 -5.072,-1.9023"
           inkscape:connector-curvature="0" />
        <path
           id="path48"
           style="fill:#231f20;fill-opacity:1;fill-rule:nonzero;stroke:none;stroke-width:0.1"
           d="m -11.0305,117.4438 c 0,0 -9.406,0 -14.7957,-4.1223 0,0 -0.1063,-0.4226 -2.8539,-2.2195 -2.7485,-1.7969 -8.0324,-4.4387 -8.0324,-4.4387 l 1.057,-1.26836 c 0,0 -1.057,0.42266 -4.3332,-1.05703 -3.2762,-1.47929 -7.9266,-1.90195 -9.6172,-1.79648 0,0 2.7477,-0.95117 4.5437,-2.21992 0,0 -1.5847,0.21172 -7.5035,0.95117 -5.9179,0.73945 -13.4222,5.39062 -18.389,11.20232 h 5.4957 l 0.9511,-1.0558 1.5856,0.5273 c 0,0 -0.4231,-1.7961 1.7961,-2.74687 2.2191,-0.95117 4.7558,-1.79687 8.8781,-1.79687 4.1215,0 9.7231,0.63476 14.2676,3.06524 4.5441,2.4297 15.4301,10.1457 26.95,6.9758"
           inkscape:connector-curvature="0" />
      </g>
    </g>
  </g>
</svg>
